<svg class="diagram-root" style="background: #f5f6f6" xmlns="http://www.w3.org/2000/svg" xmlns:xlink="http://www.w3.org/1999/xlink"><style>.diagram-root { font-family: "Helvetica Neue", sans-serif; font-size: 12px; } .t { overflow: visible; } .t-bg { y: 40; fill: #fff;   } .th { fill: #005aa0;   } .tht { fill: #fff; font-size: 14px;  } .tf { fill: #323c46; overflow: visible; } .tf.pk { fill: #005aa0; font-weight: bold; } .tf.fk { font-weight: bold; } .ty { fill: #adb1b5; font-weight: normal; text-anchor: end; } .r { fill: transparent; stroke: #c3c3c3; stroke-width: 1; } .l { stroke: 1; } .i { fill: #c2c7ce; stroke: #c2c7ce; } .i.ix { fill: #afb3b6; stroke: #000; } .fa { fill: transparent; overflow: visible; } .fa .bg.hover { fill: #f7f7f7; } .c { cy: 12; r: 4; stroke: #d2d2dc; fill: #d2d2dc; } .hr { fill: transparent; stroke: #323c46; stroke-opacity: 0.035; stroke-width: 13; } .dc { stroke: #fa5a3c; fill: #fa5a3c; } .x { stroke: white; stroke-width: 1; } .hl .th { fill: #1b9bff; } .hl .tht {  } .fhl .bg { fill: #e7f4ff; } .fhls .bg {  } .r.hl { stroke: #1b9bff; } .dim { opacity: 0.25; }</style><g class="drawing-wrapper" transform="translate(-10.224444444444444, -29.44777777777783) scale(1,1)"><g class="rs"><path d="M 32.22 125.89 m -1, 0 a 1,1 0 1,0 2,0 a 1,1 0 1,0 -2,0 M 32.22 125.89 m -0.5, 0 a 0.5,0.5 0 1,0 1,0 a 0.5,0.5 0 1,0 -1,0  M32.22 125.89 L32.22 125.89 20.22 125.89 M 32.22 131.89 m -1, 0 a 1,1 0 1,0 2,0 a 1,1 0 1,0 -2,0 M 32.22 131.89 m -0.5, 0 a 0.5,0.5 0 1,0 1,0 a 0.5,0.5 0 1,0 -1,0  M32.22 131.89 L32.22 131.89 25.22 125.89 32.22 119.89 M 32.22 119.89 m -1, 0 a 1,1 0 1,0 2,0 a 1,1 0 1,0 -2,0 M 32.22 119.89 m -0.5, 0 a 0.5,0.5 0 1,0 1,0 a 0.5,0.5 0 1,0 -1,0  M20.22 125.89 C -29.78 125.89, -30.914 279, 22.11 279 M 34.11 279 m -1, 0 a 1,1 0 1,0 2,0 a 1,1 0 1,0 -2,0 M 34.11 279 m -0.5, 0 a 0.5,0.5 0 1,0 1,0 a 0.5,0.5 0 1,0 -1,0  M34.11 279 L34.11 279 22.11 279 M28.11 285 L28.11 285 28.11 273" id="h1243215239" class="r"></path><path d="M 163.5 304 m -1, 0 a 1,1 0 1,0 2,0 a 1,1 0 1,0 -2,0 M 163.5 304 m -0.5, 0 a 0.5,0.5 0 1,0 1,0 a 0.5,0.5 0 1,0 -1,0  M163.5 304 L163.5 304 175.5 304 M 163.5 310 m -1, 0 a 1,1 0 1,0 2,0 a 1,1 0 1,0 -2,0 M 163.5 310 m -0.5, 0 a 0.5,0.5 0 1,0 1,0 a 0.5,0.5 0 1,0 -1,0  M163.5 310 L163.5 310 170.5 304 163.5 298 M 163.5 298 m -1, 0 a 1,1 0 1,0 2,0 a 1,1 0 1,0 -2,0 M 163.5 298 m -0.5, 0 a 0.5,0.5 0 1,0 1,0 a 0.5,0.5 0 1,0 -1,0  M175.5 304 C 225.5 304, 226.1 454.89, 174.5 454.89 M 162.5 454.89 m -1, 0 a 1,1 0 1,0 2,0 a 1,1 0 1,0 -2,0 M 162.5 454.89 m -0.5, 0 a 0.5,0.5 0 1,0 1,0 a 0.5,0.5 0 1,0 -1,0  M162.5 454.89 L162.5 454.89 174.5 454.89 M168.5 460.89 L168.5 460.89 168.5 448.89" id="h2275879806" class="r"></path><path d="M 306.11 241.78 m -1, 0 a 1,1 0 1,0 2,0 a 1,1 0 1,0 -2,0 M 306.11 241.78 m -0.5, 0 a 0.5,0.5 0 1,0 1,0 a 0.5,0.5 0 1,0 -1,0  M306.11 241.78 L306.11 241.78 294.11 241.78 M 306.11 247.78 m -1, 0 a 1,1 0 1,0 2,0 a 1,1 0 1,0 -2,0 M 306.11 247.78 m -0.5, 0 a 0.5,0.5 0 1,0 1,0 a 0.5,0.5 0 1,0 -1,0  M306.11 247.78 L306.11 247.78 299.11 241.78 306.11 235.78 M 306.11 235.78 m -1, 0 a 1,1 0 1,0 2,0 a 1,1 0 1,0 -2,0 M 306.11 235.78 m -0.5, 0 a 0.5,0.5 0 1,0 1,0 a 0.5,0.5 0 1,0 -1,0  M294.11 241.78 Q 264.21 241.78, 234.31 348.34 T 174.5 454.89 M 162.5 454.89 m -1, 0 a 1,1 0 1,0 2,0 a 1,1 0 1,0 -2,0 M 162.5 454.89 m -0.5, 0 a 0.5,0.5 0 1,0 1,0 a 0.5,0.5 0 1,0 -1,0  M162.5 454.89 L162.5 454.89 174.5 454.89 M168.5 460.89 L168.5 460.89 168.5 448.89" id="h1382146273" class="r"></path><path d="M 445.92 481.22 m -1, 0 a 1,1 0 1,0 2,0 a 1,1 0 1,0 -2,0 M 445.92 481.22 m -0.5, 0 a 0.5,0.5 0 1,0 1,0 a 0.5,0.5 0 1,0 -1,0  M445.92 481.22 L445.92 481.22 457.92 481.22 M 445.92 487.22 m -1, 0 a 1,1 0 1,0 2,0 a 1,1 0 1,0 -2,0 M 445.92 487.22 m -0.5, 0 a 0.5,0.5 0 1,0 1,0 a 0.5,0.5 0 1,0 -1,0  M445.92 487.22 L445.92 487.22 452.92 481.22 445.92 475.22 M 445.92 475.22 m -1, 0 a 1,1 0 1,0 2,0 a 1,1 0 1,0 -2,0 M 445.92 475.22 m -0.5, 0 a 0.5,0.5 0 1,0 1,0 a 0.5,0.5 0 1,0 -1,0  M457.92 481.22 C 525.376 481.22, 518.8299999999999 241.78, 468.83 241.78 M 456.83 241.78 m -1, 0 a 1,1 0 1,0 2,0 a 1,1 0 1,0 -2,0 M 456.83 241.78 m -0.5, 0 a 0.5,0.5 0 1,0 1,0 a 0.5,0.5 0 1,0 -1,0  M456.83 241.78 L456.83 241.78 468.83 241.78 M462.83 247.78 L462.83 247.78 462.83 235.78" id="h221257298" class="r"></path><path d="M 311.44 116.45 m -1, 0 a 1,1 0 1,0 2,0 a 1,1 0 1,0 -2,0 M 311.44 116.45 m -0.5, 0 a 0.5,0.5 0 1,0 1,0 a 0.5,0.5 0 1,0 -1,0  M311.44 116.45 L311.44 116.45 299.44 116.45 M 311.44 122.45 m -1, 0 a 1,1 0 1,0 2,0 a 1,1 0 1,0 -2,0 M 311.44 122.45 m -0.5, 0 a 0.5,0.5 0 1,0 1,0 a 0.5,0.5 0 1,0 -1,0  M311.44 122.45 L311.44 122.45 304.44 116.45 311.44 110.45 M 311.44 110.45 m -1, 0 a 1,1 0 1,0 2,0 a 1,1 0 1,0 -2,0 M 311.44 110.45 m -0.5, 0 a 0.5,0.5 0 1,0 1,0 a 0.5,0.5 0 1,0 -1,0  M299.44 116.45 C 240.91200000000003 116.45, 244.11 266.78, 294.11 266.78 M 306.11 266.78 m -1, 0 a 1,1 0 1,0 2,0 a 1,1 0 1,0 -2,0 M 306.11 266.78 m -0.5, 0 a 0.5,0.5 0 1,0 1,0 a 0.5,0.5 0 1,0 -1,0  M306.11 266.78 L306.11 266.78 294.11 266.78 M300.11 272.78 L300.11 272.78 300.11 260.78" id="h2157073902" class="r"></path></g><g class="hrs"></g><g class="ts"><svg width="146.06" height="100" x="32.22" y="68.89" id="h3708248841" class="t"><rect height="40" width="146.06" class="th"></rect><text x="13" y="25" class="tht">Departments</text><rect height="60" width="146.06" class="t-bg"></rect><text x="13" y="61" class="tf fk">dept_no<tspan x="133.06" class="ty">varchar</tspan></text><text x="13" y="86" class="tf">dept_name<tspan x="133.06" class="ty">varchar</tspan></text></svg><svg width="126.06" height="100" x="36.44" y="397.89" id="h3353995054" class="t"><rect height="40" width="126.06" class="th"></rect><text x="13" y="25" class="tht">Dept_Emp</text><rect height="60" width="126.06" class="t-bg"></rect><text x="13" y="61" class="tf fk">emp_no<tspan x="113.06" class="ty">int</tspan></text><text x="13" y="86" class="tf">dep_no<tspan x="113.06" class="ty">varchar</tspan></text></svg><svg width="129.39" height="100" x="34.11" y="222" id="h754932316" class="t"><rect height="40" width="129.39" class="th"></rect><text x="13" y="25" class="tht">Dept_Manager</text><rect height="60" width="129.39" class="t-bg"></rect><text x="13" y="61" class="tf fk">dept_no<tspan x="116.38999999999999" class="ty">varchar</tspan></text><text x="13" y="86" class="tf fk">emp_no<tspan x="116.38999999999999" class="ty">int</tspan></text></svg><svg width="150.72" height="225" x="306.11" y="184.78" id="h3299212598" class="t"><rect height="40" width="150.72" class="th"></rect><text x="13" y="25" class="tht">Employees</text><rect height="185" width="150.72" class="t-bg"></rect><text x="13" y="61" class="tf fk">emp_no<tspan x="137.72" class="ty">int</tspan></text><text x="13" y="86" class="tf fk">emp_title_id<tspan x="137.72" class="ty">varchar</tspan></text><text x="13" y="111" class="tf">birth_date<tspan x="137.72" class="ty">date</tspan></text><text x="13" y="136" class="tf">first_name<tspan x="137.72" class="ty">date</tspan></text><text x="13" y="161" class="tf">last_name<tspan x="137.72" class="ty">varchar</tspan></text><text x="13" y="186" class="tf">sex<tspan x="137.72" class="ty">Boolean?</tspan></text><text x="13" y="211" class="tf">hire_date<tspan x="137.72" class="ty">date</tspan></text></svg><svg width="102.04" height="100" x="343.88" y="424.22" id="h3858243705" class="t"><rect height="40" width="102.04" class="th"></rect><text x="13" y="25" class="tht">Salaries</text><rect height="60" width="102.04" class="t-bg"></rect><text x="13" y="61" class="tf fk">emp_no<tspan x="89.04" class="ty">int</tspan></text><text x="13" y="86" class="tf">salary<tspan x="89.04" class="ty">int</tspan></text></svg><svg width="121.82" height="100" x="311.44" y="59.45" id="h3517680912" class="t"><rect height="40" width="121.82" class="th"></rect><text x="13" y="25" class="tht">Titles</text><rect height="60" width="121.82" class="t-bg"></rect><text x="13" y="61" class="tf fk">title_id<tspan x="108.82" class="ty">Varchar</tspan></text><text x="13" y="86" class="tf">title<tspan x="108.82" class="ty">Varchar</tspan></text></svg></g></g><text class="qdbd-link" x="10" y="20">www.quickdatabasediagrams.com</text></svg>